<?xml version="1.0" encoding="UTF-8" standalone="no"?><!DOCTYPE svg PUBLIC "-//W3C//DTD SVG 1.1//EN" "http://www.w3.org/Graphics/SVG/1.1/DTD/svg11.dtd"><svg width="100%" height="100%" viewBox="0 0 27 27" version="1.1" xmlns="http://www.w3.org/2000/svg" xmlns:xlink="http://www.w3.org/1999/xlink" xml:space="preserve" xmlns:serif="http://www.serif.com/" style="fill-rule:evenodd;clip-rule:evenodd;stroke-linejoin:round;stroke-miterlimit:2;"><g><circle cx="14.4" cy="14.4" r="12.6"/><circle cx="12.6" cy="12.6" r="12.6" style="fill:#fcc419;"/><path d="M12.6,0c6.954,0 12.6,5.646 12.6,12.6c0,6.954 -5.646,12.6 -12.6,12.6c-6.954,0 -12.6,-5.646 -12.6,-12.6c-0,-6.954 5.646,-12.6 12.6,-12.6Zm-0,1c6.402,0 11.6,5.198 11.6,11.6c0,6.402 -5.198,11.6 -11.6,11.6c-6.402,0 -11.6,-5.198 -11.6,-11.6c-0,-6.402 5.198,-11.6 11.6,-11.6Z"/><text x="9.517px" y="15.848px" style="font-family:'MonotypeCorsiva', 'Monotype Corsiva', cursive;font-style:italic;font-size:15px;">f</text></g></svg>